<?xml version="1.0" encoding="utf-8"?><svg viewBox="0 0 502.66 502.66" xmlns="http://www.w3.org/2000/svg" xmlns:xlink="http://www.w3.org/1999/xlink"><style>:root>svg{display:none}:root>svg:target{display:block}</style><svg viewBox="0 0 502.664 502.664" id="icon" xmlns="http://www.w3.org/2000/svg"><path d="M153.821 358.226L0 274.337v-46.463l153.821-83.414v54.574L46.636 250.523l107.185 53.431v54.272zm26.273 29.358L282.103 115.08h32.227L212.084 387.584h-31.99zm168.749-29.358v-54.272l107.164-52.999-107.164-52.59v-53.927l153.821 83.522v46.183l-153.821 84.083z"/></svg><svg viewBox="0 0 12 13" id="link" xmlns="http://www.w3.org/2000/svg"><path d="M6 .174c-3.308 0-6 2.691-6 6 0 3.308 2.692 6 6 6s6-2.692 6-6c0-3.309-2.692-6-6-6zm-.352 2.945a8.203 8.203 0 01-1.57-.22 6.24 6.24 0 01.263-.55c.388-.714.864-1.215 1.307-1.397V3.12zm0 .704v2H3.453c.03-.781.164-1.556.384-2.26a8.902 8.902 0 001.811.26zm0 2.702v2a8.902 8.902 0 00-1.811.26 8.835 8.835 0 01-.384-2.26h2.195zm0 2.704v2.166c-.443-.181-.919-.682-1.307-1.397a6.24 6.24 0 01-.262-.549 8.201 8.201 0 011.57-.22zm.704 0a8.203 8.203 0 011.57.22 6.24 6.24 0 01-.263.55c-.388.714-.864 1.215-1.307 1.396V9.23zm0-.704v-2h2.195a8.835 8.835 0 01-.384 2.26 8.902 8.902 0 00-1.811-.26zm0-2.703v-2a8.902 8.902 0 001.811-.26 8.8 8.8 0 01.384 2.26H6.352zm0-2.703V.952c.443.182.919.683 1.307 1.397.094.174.182.358.262.55a8.203 8.203 0 01-1.57.22zm1.925-1.105a5.338 5.338 0 00-.57-.855 5.31 5.31 0 011.876 1.117 6.643 6.643 0 01-.981.425 7.125 7.125 0 00-.325-.687zm-4.554 0a7.125 7.125 0 00-.325.687 6.652 6.652 0 01-.98-.425A5.303 5.303 0 014.291 1.16a5.34 5.34 0 00-.569.855zM3.16 3.361a9.415 9.415 0 00-.411 2.461H.715a5.272 5.272 0 011.202-3.02c.382.22.8.407 1.243.56zm-.41 3.164c.03.857.171 1.694.411 2.461-.443.153-.86.34-1.243.559a5.272 5.272 0 01-1.202-3.02H2.75zm.649 3.122c.098.239.207.468.325.687.177.324.368.61.57.854a5.302 5.302 0 01-1.876-1.117c.306-.163.635-.305.981-.424zm4.879.687a7.12 7.12 0 00.325-.687c.346.119.675.261.98.425a5.303 5.303 0 01-1.874 1.116 5.46 5.46 0 00.569-.854zm.563-1.348a9.43 9.43 0 00.411-2.46h2.034a5.272 5.272 0 01-1.202 3.019 7.231 7.231 0 00-1.243-.559zm.411-3.164a9.414 9.414 0 00-.411-2.46 7.23 7.23 0 001.243-.56 5.273 5.273 0 011.202 3.02H9.25z"/></svg><svg viewBox="0 0 12 10" id="mail" xmlns="http://www.w3.org/2000/svg"><path d="M10.945.174h-9.89C.474.174 0 .647 0 1.229v7.03c0 .58.472 1.055 1.055 1.055h9.89c.58 0 1.055-.471 1.055-1.054V1.229c0-.58-.472-1.055-1.055-1.055zM10.8.877L6.022 5.654 1.204.877H10.8zM.703 8.114V1.371L4.09 4.728.703 8.114zm.497.497l3.39-3.388L5.776 6.4c.137.136.36.136.496-.001L7.43 5.241l3.37 3.37H1.2zm10.097-.497l-3.37-3.37 3.37-3.37v6.74z"/></svg></svg>